<?xml version="1.0" encoding="utf-8"?>
<!-- Generator: Adobe Illustrator 19.0.0, SVG Export Plug-In . SVG Version: 6.00 Build 0)  -->
<svg version="1.1" id="Layer_1" xmlns="http://www.w3.org/2000/svg" xmlns:xlink="http://www.w3.org/1999/xlink" x="0px" y="0px"
	 viewBox="0 0 230.5 214.3" style="enable-background:new 0 0 230.5 214.3;" xml:space="preserve">
<style type="text/css">
	.st0{fill:#0C373C;}
</style>
<g>
	<polygon class="st0" points="44.2,166.3 64.9,166.3 64.9,156.3 44.2,156.3 30.2,145.3 50.9,145.3 50.9,136.3 1.8,136.3 34.7,161.3 
		1.8,186.3 100.9,186.3 100.9,176.3 30.2,176.3 	"/>
	<polygon class="st0" points="65.9,144.3 72.7,137.5 26.8,91.7 45,94.2 58,107.1 64.8,100.4 51,86.6 48.7,69.8 76.8,97.9 83.6,91.2 
		35.4,43 41,84 0,78.4 	"/>
	<path class="st0" d="M99.9,28.4l11,14v19.9h9V42.4l11-14v72.9h9V0l-25,32.9L89.9,0v100.3h10V28.4z M115.3,40.8L115.3,40.8
		L115.3,40.8L115.3,40.8z"/>
	<rect x="110.9" y="76.3" class="st0" width="9" height="22"/>
	<polygon class="st0" points="228.8,136.3 178.9,136.3 178.9,145.3 200.4,145.3 186.3,156.3 165.9,156.3 165.9,166.3 186.3,166.3 
		200.4,176.3 129.9,176.3 129.9,186.3 228.8,186.3 195.8,161.3 	"/>
	<polygon class="st0" points="181.8,69.8 179.5,86.6 165.8,100.4 172.5,107.1 185.5,94.2 203.7,91.7 157.8,137.5 164.6,144.3 
		230.5,78.4 189.6,84 195.1,43 146,92.1 152.8,98.8 	"/>
	<polygon class="st0" points="151.9,166.3 151.9,156.3 122.5,156.3 162.2,116.6 155.4,109.9 119.9,145.3 119.9,114.3 110.9,114.3 
		110.9,145.3 75.3,109.9 68.4,116.6 108.1,156.3 78.9,156.3 78.9,166.3 110.9,166.3 110.9,181.4 110.9,214.3 119.9,214.3 
		119.9,181.4 119.9,166.3 	"/>
</g>
</svg>
