<?xml version="1.0" encoding="utf-8"?>
<!-- Generator: Adobe Illustrator 19.0.0, SVG Export Plug-In . SVG Version: 6.00 Build 0)  -->
<svg version="1.1" id="Layer_1" xmlns="http://www.w3.org/2000/svg" xmlns:xlink="http://www.w3.org/1999/xlink" x="0px" y="0px"
	 viewBox="0 0 221.7 36.3" enable-background="new 0 0 221.7 36.3" xml:space="preserve">
<g id="XMLID_67_">
	<polygon id="XMLID_82_" fill="#07272B" points="77,19.2 77.7,14.8 65.5,14.8 66.3,9.5 79.7,9.5 80.4,5 61.9,5 57.9,30.2 77,30.2 
		77.7,25.7 63.7,25.7 64.8,19.2 	"/>
	<path id="XMLID_81_" fill="#07272B" d="M93.3,25.7h-7.7L88.9,5h-5.3l-4,25.2h17.3c-0.5-0.3-0.9-0.6-1.3-0.9
		C94.7,28.6,93.8,27.3,93.3,25.7z"/>
	<path id="XMLID_80_" fill="#07272B" d="M140.9,5.1h-23.1c1,0.9,2.1,2.3,2.5,4.5h7L124,30.2h5.3l3.3-20.7h7.5L140.9,5.1z"/>
	<path id="XMLID_77_" fill="#07272B" d="M185.8,7.3c-1.6-1.9-4.1-2.9-7.7-2.9c-3.5,0-6.4,1-8.6,2.9c-2.9,2.3-4.7,5.7-5.4,10.2
		c-0.7,4.5,0,7.9,2.1,10.2c1.6,1.9,4.1,2.9,7.7,2.9c3.5,0,6.4-1,8.6-2.9c2.9-2.4,4.7-5.8,5.4-10.2C188.6,13,187.9,9.6,185.8,7.3z
		 M182.7,17.5c-0.4,2.8-1.4,4.9-2.9,6.5c-1.5,1.5-3.2,2.3-5.3,2.3c-2.1,0-3.6-0.8-4.5-2.3c-1-1.5-1.2-3.7-0.8-6.5
		c0.4-2.8,1.4-4.9,2.9-6.5c1.5-1.5,3.2-2.3,5.3-2.3c2.1,0,3.6,0.8,4.5,2.3C182.9,12.6,183.2,14.8,182.7,17.5z"/>
	<path id="XMLID_76_" fill="#07272B" d="M115.9,6.6c-1.7-1.4-3.9-2.1-6.6-2.1c-3.3,0-5.9,0.7-7.8,2.2c-1.9,1.5-3.1,3.3-3.5,5.5
		c-0.4,2.4,0.2,4.2,1.7,5.3c0.9,0.7,2.7,1.3,5.3,1.9l2.6,0.6c1.6,0.3,2.7,0.7,3.3,1.1c0.7,0.4,0.9,1.1,0.8,1.9
		c-0.2,1.4-1.1,2.3-2.7,2.8c-0.8,0.3-1.9,0.4-3.2,0.4c-2.1,0-3.6-0.5-4.3-1.5c-0.4-0.6-0.6-1.4-0.5-2.5h-5.2c-0.4,2.5,0.2,4.6,1.9,6
		c1.7,1.5,4.2,2.2,7.6,2.2c3.3,0,6-0.7,8-2.2c2.1-1.5,3.3-3.3,3.7-5.6c0.4-2.2-0.1-3.9-1.5-5c-0.9-0.7-2.2-1.3-4.1-1.8l-4.3-1
		c-1.7-0.4-2.7-0.7-3.2-1c-0.7-0.4-1-1.1-0.9-2c0.2-1,0.7-1.7,1.6-2.2c0.9-0.5,2.1-0.8,3.5-0.8c1.3,0,2.3,0.2,3,0.6
		c1.2,0.6,1.7,1.7,1.5,3.1h5.2C118.3,9.9,117.6,7.9,115.9,6.6z"/>
	<path id="XMLID_75_" fill="#07272B" d="M214.1,25l3.2-20h-7.4l-7.7,19.8L200.7,5h-7.6l-4,25.2h4.9l2.7-17c0.1-0.5,0.2-1.2,0.3-2.1
		c0.1-0.9,0.2-1.6,0.3-2l1.4,21.1h5.1l8.1-21.1c-0.1,0.5-0.2,1.2-0.3,2c-0.2,0.9-0.3,1.6-0.4,2.1l-2.7,17h6.8
		C213.9,29.2,213.6,28,214.1,25z"/>
	<path id="XMLID_72_" fill="#07272B" d="M161.1,15.7c0.8-1.2,1.3-2.3,1.5-3.5c0.2-1,0.1-1.9-0.1-2.6c-0.2-0.8-0.5-1.5-1-2.1
		c-0.5-0.8-1.3-1.4-2.1-1.8c-0.9-0.4-2.2-0.6-4-0.6h-12.3l-4,25.2h5.1l1.6-9.9h5.4c1.5,0,2.6,0.3,3,0.8c0.5,0.5,0.6,1.6,0.4,3.2
		l-0.2,2.8c-0.3,1.9,0.8,3,2.3,3h4.3c0,0,0,0,0,0h0.5c-1.5-1-2.1-2.6-1.7-5.2c0.1-0.5,0.2-0.9,0.2-0.9c0.3-1.8,0.3-3.1-0.1-3.9
		c-0.3-0.9-1.1-1.5-2.1-2C159.2,17.7,160.3,16.9,161.1,15.7z M155.2,15.8c-0.6,0.3-1.5,0.4-2.7,0.4h-6l1.1-6.8h6.1
		c1.1,0,2,0.1,2.5,0.4c0.9,0.5,1.3,1.5,1,3.1C157,14.3,156.3,15.3,155.2,15.8z"/>
	<path id="XMLID_71_" fill="#07272B" d="M25.8,5L18,24.9L16.6,5H7.2c1.4,1.1,1.6,2.4,1.1,5.2c-0.8,5-3.2,20-3.2,20h4.7l2.7-17.1
		c0.1-0.5,0.2-1.2,0.3-2.1c0.1-0.9,0.2-1.6,0.3-2l1.4,21.2h5.1l8.2-21.2c-0.1,0.5-0.2,1.2-0.3,2c-0.2,0.9-0.3,1.6-0.4,2.1l-2.7,17.1
		h4.9l4-25.2H25.8z"/>
	<path id="XMLID_68_" fill="#07272B" d="M50.7,5h-7.3c0.7,1,0.2,2.2-0.2,3c-2.9,5.6-11.5,22.2-11.5,22.2h5.5l2.6-5.2h9.3l0.8,5.2
		h5.7L50.7,5z M41.9,20.7l4.8-9.9l1.6,9.9H41.9z"/>
</g>
</svg>
