<?xml version="1.0" encoding="utf-8"?>
<!-- Generator: Adobe Illustrator 19.0.0, SVG Export Plug-In . SVG Version: 6.00 Build 0)  -->
<svg version="1.1" id="Layer_1" xmlns="http://www.w3.org/2000/svg" xmlns:xlink="http://www.w3.org/1999/xlink" x="0px" y="0px"
	 viewBox="0 0 150 150" enable-background="new 0 0 150 150" xml:space="preserve">
<g>
	<path fill="#7DE1EB" d="M75,30c-27.8,0-50.5,18.1-50.5,40.4c0,8.2,3.1,16.2,9,23c0.1,0.1,0.2,0.3,0.3,0.4
		c5.4,8.5-0.3,19.2-5.2,25.8c15.8-1.6,29.2-9.9,29.4-10c0.8-0.5,1.8-0.7,2.7-0.5c4.6,1.1,9.5,1.7,14.3,1.7
		c27.8,0,50.5-18.1,50.5-40.4C125.5,48.1,102.8,30,75,30 M23.8,126.8c-1,0-2,0-2.9-0.1c-1.4-0.1-2.6-1-3.1-2.2
		c-0.5-1.3-0.2-2.8,0.8-3.7c3.8-3.8,13.5-16.2,9.5-23.1c-6.9-8-10.5-17.5-10.5-27.3C17.5,44.2,43.3,23,75,23
		c31.7,0,57.5,21.3,57.5,47.4c0,26.1-25.8,47.4-57.5,47.4c-4.9,0-9.7-0.5-14.5-1.5C56.1,118.8,40.9,126.8,23.8,126.8"/>
	<path fill="#7DE1EB" d="M100.1,64H51.5c-1.9,0-3.5-1.6-3.5-3.5c0-1.9,1.6-3.5,3.5-3.5h48.6c1.9,0,3.5,1.6,3.5,3.5
		C103.6,62.4,102,64,100.1,64"/>
	<path fill="#7DE1EB" d="M100.1,83.7H51.5c-1.9,0-3.5-1.6-3.5-3.5c0-1.9,1.6-3.5,3.5-3.5h48.6c1.9,0,3.5,1.6,3.5,3.5
		C103.6,82.1,102,83.7,100.1,83.7"/>
</g>
</svg>
