<?xml version="1.0" encoding="utf-8"?>
<!-- Generator: Adobe Illustrator 19.0.0, SVG Export Plug-In . SVG Version: 6.00 Build 0)  -->
<svg version="1.1" id="Layer_1" xmlns="http://www.w3.org/2000/svg" xmlns:xlink="http://www.w3.org/1999/xlink" x="0px" y="0px"
	 viewBox="0 0 150 150" enable-background="new 0 0 150 150" xml:space="preserve">
<path fill="#7DE1EB" d="M137.9,116.6l-7.7-7.7c0-0.1,0-0.1,0-0.2c0-1.1,0-2.2-0.7-3l-3.4-3.9c0,0,0,0.3,0,0.3h-1l-3.9-4.1
	c-0.9-0.9-2.1-1.3-3.2-1.3L96,74.7c0.3,0.1,0.6,0.1,0.9,0.1c0.7,0,1.4-0.3,2-0.8l35.1-35.1c0.1-0.1,0.1-0.2,0.1-0.2
	c0.1-0.2,0.3-0.3,0.4-0.6c0.1-0.1,0.1-0.3,0.2-0.4c0-0.1,0.1-0.2,0.1-0.3l4-22.1c0.2-0.9-0.1-1.8-0.8-2.5c-0.7-0.7-1.6-0.9-2.5-0.8
	l-22,4c-0.8,0.1-1.4,0.6-1.8,1.2l-0.2,0.2c0,0,0,0,0,0L77.7,51c-1.1,1.1-1.1,2.9,0,4c0.6,0.6,1.3,0.8,2,0.8c0.7,0,1.4-0.3,2-0.8
	l30.8-30.8l1.2,2.5c0.3,0.6,0.8,1.1,1.4,1.4l5.2,2.4l2.4,5.2c0.3,0.6,0.8,1.1,1.4,1.4l2.5,1.2L94.8,70c-0.8,0.8-1,1.9-0.7,2.9
	L38.7,17.4c0,0,0,0,0,0l-0.2-0.2c-0.4-0.6-1.1-1.1-1.8-1.2l-22-4c-0.9-0.2-1.8,0.1-2.5,0.8c-0.7,0.7-0.9,1.6-0.8,2.5l4,22.1
	c0,0.1,0.1,0.2,0.1,0.3c0,0.1,0.1,0.3,0.2,0.4c0.1,0.2,0.2,0.4,0.4,0.6c0.1,0.1,0.1,0.2,0.1,0.2l37.8,37.8c-0.9-0.2-1.9,0-2.5,0.7
	L32.1,96.6c-1.2-0.1-2.3,0.3-3.2,1.2l-7.9,7.9c-0.8,0.8-1.2,1.9-1.2,3c0,0.1,0,0.1,0,0.2l-7.7,7.7c-1.1,1.1-1.1,2.9,0,4l18.1,18.1
	c0.6,0.6,1.3,0.8,2,0.8c0.7,0,1.4-0.3,2-0.8l7.7-7.7c0.1,0,0.1,0,0.2,0c1.1,0,2.2-0.4,3-1.2l3.9-3.9l0,0l0,0l3.9-3.9
	c0.8-0.8,1.2-1.9,1.2-3c0-0.1,0-0.1,0-0.2l18.4-18.4c1.1-1.1,1.1-2.9,0-4c-1.1-1.1-2.9-1.1-4,0L51,113.8L36.9,99.8l18.4-18.4
	c0.7-0.7,0.9-1.6,0.7-2.5l39.8,39.8c0,0.1,0,0.1,0,0.2c0,1.1,0.4,2.2,1.2,3l7.9,7.9c0.8,0.8,1.9,1.2,3,1.2c0.1,0,0.1,0,0.2,0
	l7.7,7.7c0.6,0.6,1.3,0.8,2,0.8c0.7,0,1.4-0.3,2-0.8l18.1-18.1C139,119.5,139,117.7,137.9,116.6z M123.7,25.7l-5.2-2.4l-1.1-2.3
	l15-2.7l-2.7,15l-2.2-1l-2.4-5.2C124.7,26.5,124.3,26,123.7,25.7z M32.2,132.6l-14.1-14.1l4.9-4.9l14.1,14.1L32.2,132.6z M36.3,26.6
	l1.2-2.5l75.6,75.6L99,113.8L23.4,38.2l2.5-1.2c0.6-0.3,1.1-0.8,1.4-1.4l2.4-5.2l5.2-2.4C35.5,27.7,36,27.2,36.3,26.6z M32.6,21
	l-1.1,2.3l-5.2,2.4c-0.6,0.3-1.1,0.8-1.4,1.4l-2.4,5.2l-2.2,1l-2.7-15L32.6,21z M117.8,132.6l-4.9-4.9l14.1-14.1l4.9,4.9
	L117.8,132.6z"/>
</svg>
