<svg xmlns="http://www.w3.org/2000/svg" viewBox="0 0 221.7 36.3"><path d="M77 19.2l.7-4.4H65.5l.8-5.3h13.4l.7-4.5H61.9l-4 25.2H77l.7-4.5h-14l1.1-6.5zm16.3 6.5h-7.7L88.9 5h-5.3l-4 25.2h17.3c-.5-.3-.9-.6-1.3-.9-.9-.7-1.8-2-2.3-3.6zm47.6-20.6h-23.1c1 .9 2.1 2.3 2.5 4.5h7L124 30.2h5.3l3.3-20.7h7.5l.8-4.4zm44.9 2.2c-1.6-1.9-4.1-2.9-7.7-2.9-3.5 0-6.4 1-8.6 2.9-2.9 2.3-4.7 5.7-5.4 10.2-.7 4.5 0 7.9 2.1 10.2 1.6 1.9 4.1 2.9 7.7 2.9 3.5 0 6.4-1 8.6-2.9 2.9-2.4 4.7-5.8 5.4-10.2.7-4.5 0-7.9-2.1-10.2zm-3.1 10.2c-.4 2.8-1.4 4.9-2.9 6.5-1.5 1.5-3.2 2.3-5.3 2.3-2.1 0-3.6-.8-4.5-2.3-1-1.5-1.2-3.7-.8-6.5.4-2.8 1.4-4.9 2.9-6.5 1.5-1.5 3.2-2.3 5.3-2.3 2.1 0 3.6.8 4.5 2.3 1 1.6 1.3 3.8.8 6.5zM115.9 6.6c-1.7-1.4-3.9-2.1-6.6-2.1-3.3 0-5.9.7-7.8 2.2-1.9 1.5-3.1 3.3-3.5 5.5-.4 2.4.2 4.2 1.7 5.3.9.7 2.7 1.3 5.3 1.9l2.6.6c1.6.3 2.7.7 3.3 1.1.7.4.9 1.1.8 1.9-.2 1.4-1.1 2.3-2.7 2.8-.8.3-1.9.4-3.2.4-2.1 0-3.6-.5-4.3-1.5-.4-.6-.6-1.4-.5-2.5h-5.2c-.4 2.5.2 4.6 1.9 6 1.7 1.5 4.2 2.2 7.6 2.2 3.3 0 6-.7 8-2.2 2.1-1.5 3.3-3.3 3.7-5.6.4-2.2-.1-3.9-1.5-5-.9-.7-2.2-1.3-4.1-1.8l-4.3-1c-1.7-.4-2.7-.7-3.2-1-.7-.4-1-1.1-.9-2 .2-1 .7-1.7 1.6-2.2.9-.5 2.1-.8 3.5-.8 1.3 0 2.3.2 3 .6 1.2.6 1.7 1.7 1.5 3.1h5.2c.5-2.6-.2-4.6-1.9-5.9zM214.1 25l3.2-20h-7.4l-7.7 19.8L200.7 5h-7.6l-4 25.2h4.9l2.7-17c.1-.5.2-1.2.3-2.1.1-.9.2-1.6.3-2l1.4 21.1h5.1l8.1-21.1c-.1.5-.2 1.2-.3 2-.2.9-.3 1.6-.4 2.1l-2.7 17h6.8c-1.4-1-1.7-2.2-1.2-5.2zm-53-9.3c.8-1.2 1.3-2.3 1.5-3.5.2-1 .1-1.9-.1-2.6-.2-.8-.5-1.5-1-2.1-.5-.8-1.3-1.4-2.1-1.8-.9-.4-2.2-.6-4-.6h-12.3l-4 25.2h5.1l1.6-9.9h5.4c1.5 0 2.6.3 3 .8.5.5.6 1.6.4 3.2l-.2 2.8c-.3 1.9.8 3 2.3 3h4.8c-1.5-1-2.1-2.6-1.7-5.2.1-.5.2-.9.2-.9.3-1.8.3-3.1-.1-3.9-.3-.9-1.1-1.5-2.1-2 1.4-.5 2.5-1.3 3.3-2.5zm-5.9.1c-.6.3-1.5.4-2.7.4h-6l1.1-6.8h6.1c1.1 0 2 .1 2.5.4.9.5 1.3 1.5 1 3.1-.2 1.4-.9 2.4-2 2.9zM25.8 5L18 24.9 16.6 5H7.2c1.4 1.1 1.6 2.4 1.1 5.2l-3.2 20h4.7l2.7-17.1c.1-.5.2-1.2.3-2.1.1-.9.2-1.6.3-2l1.4 21.2h5.1L27.8 9c-.1.5-.2 1.2-.3 2-.2.9-.3 1.6-.4 2.1l-2.7 17.1h4.9l4-25.2h-7.5zm24.9 0h-7.3c.7 1 .2 2.2-.2 3L31.7 30.2h5.5l2.6-5.2h9.3l.8 5.2h5.7L50.7 5zm-8.8 15.7l4.8-9.9 1.6 9.9h-6.4z" fill="#07272B"/></svg>