<svg xmlns="http://www.w3.org/2000/svg" viewBox="0 0 150 150"><g fill="#7DE1EB"><path d="M75 30c-27.8 0-50.5 18.1-50.5 40.4 0 8.2 3.1 16.2 9 23 .1.1.2.3.3.4 5.4 8.5-.3 19.2-5.2 25.8 15.8-1.6 29.2-9.9 29.4-10 .8-.5 1.8-.7 2.7-.5 4.6 1.1 9.5 1.7 14.3 1.7 27.8 0 50.5-18.1 50.5-40.4C125.5 48.1 102.8 30 75 30m-51.2 96.8c-1 0-2 0-2.9-.1-1.4-.1-2.6-1-3.1-2.2-.5-1.3-.2-2.8.8-3.7 3.8-3.8 13.5-16.2 9.5-23.1-6.9-8-10.5-17.5-10.5-27.3C17.5 44.2 43.3 23 75 23s57.5 21.3 57.5 47.4c0 26.1-25.8 47.4-57.5 47.4-4.9 0-9.7-.5-14.5-1.5-4.4 2.5-19.6 10.5-36.7 10.5"/><path d="M100.1 64H51.5c-1.9 0-3.5-1.6-3.5-3.5s1.6-3.5 3.5-3.5h48.6c1.9 0 3.5 1.6 3.5 3.5S102 64 100.1 64m0 19.7H51.5c-1.9 0-3.5-1.6-3.5-3.5s1.6-3.5 3.5-3.5h48.6c1.9 0 3.5 1.6 3.5 3.5s-1.6 3.5-3.5 3.5"/></g></svg>