<svg id="Layer_1" xmlns="http://www.w3.org/2000/svg" viewBox="0 0 223.8 223.8"><style>.st0{fill:#0c373c}</style><path class="st0" d="M106.8 81.7h10V43.3l19.7-19.6-7.5-7.5-12.2 12.1V-.3h-10v28.1L95 16.2l-7.4 7.5 19.2 19.1z"/><path transform="rotate(45.001 166.59 59.561)" class="st0" d="M161.3 52.3h10.6v14.6h-10.6z"/><path transform="rotate(45.009 58.777 59.557)" class="st0" d="M51.5 54.3h14.6v10.6H51.5z"/><path transform="rotate(-134.999 58.778 165.51)" class="st0" d="M53.5 158.2h10.6v14.6H53.5z"/><path class="st0" d="M166.8 138.7h-20.4l-26.5-26.5 26.4-26.5h20.5v-10h-17v-16h-11v18.7l-26 26.4-26-26.4V59.7h-11v16h-17v10H79l26.5 26.5L79 138.7H58.8v11h17v16h11v-19.1l26-26.3 26 26.3v19.1h11v-16h17z"/><path transform="rotate(-135.004 166.579 165.5)" class="st0" d="M159.3 160.2h14.6v10.6h-14.6z"/><path class="st0" d="M116.8 141.7h-10V181l-19.3 19.1 7.6 7.5 11.7-11.6v27.7h10v-28.2l12.2 12.1 7.5-7.5-19.7-19.6zm107-35H196l11.6-11.8-7.5-7.4-19.1 19.2h-39.2v10h38.7l19.6 19.7 7.5-7.6-12.1-12.1h28.3zm-142 10v-10h-39L23.7 87.4 16.2 95l11.6 11.7h-28v10h28.5l-12.1 12.2 7.5 7.4 19.6-19.6z"/></svg>