<svg xmlns="http://www.w3.org/2000/svg" viewBox="0 0 150 150"><path fill="#7DE1EB" d="M137.9 116.6l-7.7-7.7v-.2c0-1.1 0-2.2-.7-3l-3.4-3.9v.3h-1l-3.9-4.1c-.9-.9-2.1-1.3-3.2-1.3l-22-22c.3.1.6.1.9.1.7 0 1.4-.3 2-.8L134 38.9c.1-.1.1-.2.1-.2.1-.2.3-.3.4-.6.1-.1.1-.3.2-.4 0-.1.1-.2.1-.3l4-22.1c.2-.9-.1-1.8-.8-2.5-.7-.7-1.6-.9-2.5-.8l-22 4c-.8.1-1.4.6-1.8 1.2l-.2.2L77.7 51c-1.1 1.1-1.1 2.9 0 4 .6.6 1.3.8 2 .8s1.4-.3 2-.8l30.8-30.8 1.2 2.5c.3.6.8 1.1 1.4 1.4l5.2 2.4 2.4 5.2c.3.6.8 1.1 1.4 1.4l2.5 1.2L94.8 70c-.8.8-1 1.9-.7 2.9L38.7 17.4l-.2-.2c-.4-.6-1.1-1.1-1.8-1.2l-22-4c-.9-.2-1.8.1-2.5.8-.7.7-.9 1.6-.8 2.5l4 22.1c0 .1.1.2.1.3 0 .1.1.3.2.4.1.2.2.4.4.6.1.1.1.2.1.2L54 76.7c-.9-.2-1.9 0-2.5.7L32.1 96.6c-1.2-.1-2.3.3-3.2 1.2l-7.9 7.9c-.8.8-1.2 1.9-1.2 3v.2l-7.7 7.7c-1.1 1.1-1.1 2.9 0 4l18.1 18.1c.6.6 1.3.8 2 .8s1.4-.3 2-.8l7.7-7.7h.2c1.1 0 2.2-.4 3-1.2l3.9-3.9 3.9-3.9c.8-.8 1.2-1.9 1.2-3v-.2l18.4-18.4c1.1-1.1 1.1-2.9 0-4s-2.9-1.1-4 0L51 113.8l-14.1-14 18.4-18.4c.7-.7.9-1.6.7-2.5l39.8 39.8v.2c0 1.1.4 2.2 1.2 3l7.9 7.9c.8.8 1.9 1.2 3 1.2h.2l7.7 7.7c.6.6 1.3.8 2 .8s1.4-.3 2-.8l18.1-18.1c1.1-1.1 1.1-2.9 0-4zm-14.2-90.9l-5.2-2.4-1.1-2.3 15-2.7-2.7 15-2.2-1-2.4-5.2c-.4-.6-.8-1.1-1.4-1.4zM32.2 132.6l-14.1-14.1 4.9-4.9 14.1 14.1-4.9 4.9zm4.1-106l1.2-2.5 75.6 75.6L99 113.8 23.4 38.2l2.5-1.2c.6-.3 1.1-.8 1.4-1.4l2.4-5.2 5.2-2.4c.6-.3 1.1-.8 1.4-1.4zM32.6 21l-1.1 2.3-5.2 2.4c-.6.3-1.1.8-1.4 1.4l-2.4 5.2-2.2 1-2.7-15 15 2.7zm85.2 111.6l-4.9-4.9 14.1-14.1 4.9 4.9-14.1 14.1z"/></svg>