<?xml version="1.0" encoding="utf-8"?>
<!-- Generator: Adobe Illustrator 19.0.0, SVG Export Plug-In . SVG Version: 6.00 Build 0)  -->
<svg version="1.1" id="Layer_1" xmlns="http://www.w3.org/2000/svg" xmlns:xlink="http://www.w3.org/1999/xlink" x="0px" y="0px"
	 viewBox="0 0 150 150" enable-background="new 0 0 150 150" xml:space="preserve">
<g>
	<path fill="#7DE1EB" d="M142,16.3c0-2.4-1.9-4.3-4.3-4.3H12.3C9.9,12,8,13.9,8,16.3v82.5c0,2.4,1.9,4.3,4.3,4.3h125.5
		c2.4,0,4.3-1.9,4.3-4.3V16.3z M135,95H15V19h120V95z"/>
	<path fill="#7DE1EB" d="M96.7,124.1c-1-2.1-2.1-7.4-2.5-10.2c-0.3-2.3-2.5-3.9-4.8-3.6c-2.3,0.3-3.9,2.5-3.6,4.8
		c0.1,0.9,1.3,10,3.3,14c0.3,0.6,0.6-1.1,1,2.9H58.9c0.4-4,0.7-2.3,1-2.9c2-4,3.2-12.5,3.3-13.4c0.3-2.3-1.3-4.8-3.6-5.1
		c-2.4-0.4-4.5,1.1-4.8,3.5c-0.4,2.9-1.5,8.1-2.5,10.2c-1,1.9-4.1,5-5.9,6.4c-1.4,1.1-1.9,3.4-1.3,5.1c0.6,1.7,2.2,3.2,4,3.2h50.8
		c1.8,0,3.4-1.6,4-3.2c0.6-1.7,0.1-3.8-1.3-4.9C100.8,129.4,97.7,126.1,96.7,124.1z"/>
	<path fill="#7DE1EB" d="M28,51.3c2.4,0,6-1.9,6-4.3v-9h36.4c2.4,0,4.3-3.1,4.3-5.5c0-2.4-1.9-5.5-4.3-5.5H26.8
		c-2.4,0-4.8,2.6-4.8,4.9V47C22,49.4,25.6,51.3,28,51.3z"/>
</g>
</svg>
