<?xml version="1.0" encoding="utf-8"?>
<!-- Generator: Adobe Illustrator 19.0.0, SVG Export Plug-In . SVG Version: 6.00 Build 0)  -->
<svg version="1.1" id="Layer_1" xmlns="http://www.w3.org/2000/svg" xmlns:xlink="http://www.w3.org/1999/xlink" x="0px" y="0px"
	 viewBox="0 0 223.8 223.8" style="enable-background:new 0 0 223.8 223.8;" xml:space="preserve">
<style type="text/css">
	.st0{fill:#0C373C;}
</style>
<g>
	<polygon class="st0" points="106.8,81.7 116.8,81.7 116.8,43.3 136.5,23.7 129,16.2 116.8,28.3 116.8,-0.3 106.8,-0.3 106.8,27.8 
		95,16.2 87.6,23.7 106.8,42.8 	"/>
	
		<rect x="161.3" y="52.3" transform="matrix(0.7071 0.7071 -0.7071 0.7071 90.9098 -100.3499)" class="st0" width="10.6" height="14.6"/>
	
		<rect x="51.5" y="54.3" transform="matrix(0.707 0.7072 -0.7072 0.707 59.3402 -24.1167)" class="st0" width="14.6" height="10.6"/>
	
		<rect x="53.5" y="158.2" transform="matrix(-0.7071 -0.7071 0.7071 -0.7071 -16.6918 324.1046)" class="st0" width="10.6" height="14.6"/>
	<polygon class="st0" points="166.8,138.7 146.4,138.7 119.9,112.2 146.3,85.7 166.8,85.7 166.8,75.7 149.8,75.7 149.8,59.7 
		138.8,59.7 138.8,78.4 112.8,104.8 86.8,78.4 86.8,59.7 75.8,59.7 75.8,75.7 58.8,75.7 58.8,85.7 79,85.7 105.5,112.2 79,138.7 
		58.8,138.7 58.8,149.7 75.8,149.7 75.8,165.7 86.8,165.7 86.8,146.6 112.8,120.3 138.8,146.6 138.8,165.7 149.8,165.7 149.8,149.7 
		166.8,149.7 	"/>
	
		<rect x="159.3" y="160.2" transform="matrix(-0.7072 -0.7071 0.7071 -0.7072 167.3694 400.3374)" class="st0" width="14.6" height="10.6"/>
	<polygon class="st0" points="116.8,141.7 106.8,141.7 106.8,181 87.5,200.1 95.1,207.6 106.8,196 106.8,223.7 116.8,223.7 
		116.8,195.5 129,207.6 136.5,200.1 116.8,180.5 	"/>
	<polygon class="st0" points="223.8,106.7 196,106.7 207.6,94.9 200.1,87.5 181,106.7 141.8,106.7 141.8,116.7 180.5,116.7 
		200.1,136.4 207.6,128.8 195.5,116.7 223.8,116.7 	"/>
	<polygon class="st0" points="81.8,116.7 81.8,106.7 42.8,106.7 23.7,87.4 16.2,95 27.8,106.7 -0.2,106.7 -0.2,116.7 28.3,116.7 
		16.2,128.9 23.7,136.3 43.3,116.7 	"/>
</g>
</svg>
