<svg id="Layer_1" xmlns="http://www.w3.org/2000/svg" viewBox="0 0 230.5 214.3"><style>.st0{fill:#0c373c}</style><path class="st0" d="M44.2 166.3h20.7v-10H44.2l-14-11h20.7v-9H1.8l32.9 25-32.9 25h99.1v-10H30.2zm21.7-22l6.8-6.8-45.9-45.8L45 94.2l13 12.9 6.8-6.7L51 86.6l-2.3-16.8 28.1 28.1 6.8-6.7L35.4 43 41 84 0 78.4zm34-115.9l11 14v19.9h9V42.4l11-14v72.9h9V0l-25 32.9L89.9 0v100.3h10V28.4zm15.4 12.4z"/><path class="st0" d="M110.9 76.3h9v22h-9zm117.9 60h-49.9v9h21.5l-14.1 11h-20.4v10h20.4l14.1 10h-70.5v10h98.9l-33-25zm-47-66.5l-2.3 16.8-13.7 13.8 6.7 6.7 13-12.9 18.2-2.5-45.9 45.8 6.8 6.8 65.9-65.9-40.9 5.6 5.5-41L146 92.1l6.8 6.7z"/><path class="st0" d="M151.9 166.3v-10h-29.4l39.7-39.7-6.8-6.7-35.5 35.4v-31h-9v31l-35.6-35.4-6.9 6.7 39.7 39.7H78.9v10h32v48h9v-48z"/></svg>