<svg xmlns="http://www.w3.org/2000/svg" viewBox="0 0 150 150"><g fill="#7DE1EB"><path d="M142 16.3c0-2.4-1.9-4.3-4.3-4.3H12.3C9.9 12 8 13.9 8 16.3v82.5c0 2.4 1.9 4.3 4.3 4.3h125.5c2.4 0 4.3-1.9 4.3-4.3V16.3zM135 95H15V19h120v76zm-38.3 29.1c-1-2.1-2.1-7.4-2.5-10.2-.3-2.3-2.5-3.9-4.8-3.6-2.3.3-3.9 2.5-3.6 4.8.1.9 1.3 10 3.3 14 .3.6.6-1.1 1 2.9H58.9c.4-4 .7-2.3 1-2.9 2-4 3.2-12.5 3.3-13.4.3-2.3-1.3-4.8-3.6-5.1-2.4-.4-4.5 1.1-4.8 3.5-.4 2.9-1.5 8.1-2.5 10.2-1 1.9-4.1 5-5.9 6.4-1.4 1.1-1.9 3.4-1.3 5.1.6 1.7 2.2 3.2 4 3.2h50.8c1.8 0 3.4-1.6 4-3.2.6-1.7.1-3.8-1.3-4.9-1.8-1.5-4.9-4.8-5.9-6.8z"/><path d="M28 51.3c2.4 0 6-1.9 6-4.3v-9h36.4c2.4 0 4.3-3.1 4.3-5.5S72.8 27 70.4 27H26.8c-2.4 0-4.8 2.6-4.8 4.9V47c0 2.4 3.6 4.3 6 4.3z"/></g></svg>