<?xml version="1.0" encoding="utf-8"?>
<!-- Generator: Adobe Illustrator 19.0.0, SVG Export Plug-In . SVG Version: 6.00 Build 0)  -->
<svg version="1.1" id="Layer_1" xmlns="http://www.w3.org/2000/svg" xmlns:xlink="http://www.w3.org/1999/xlink" x="0px" y="0px"
	 viewBox="0 0 244 244" style="enable-background:new 0 0 244 244;" xml:space="preserve">
<style type="text/css">
	.st0{fill:#0C373C;}
</style>
<g>
	<g>
		<path class="st0" d="M156.5,125.9l-11.2-1.4c0.1-1,0.2-1.9,0.2-2.9c0-6.8-2.9-13.3-8.1-17.7l7.4-8.5c7.6,6.6,11.9,16.2,11.9,26.2
			C156.8,123.1,156.7,124.5,156.5,125.9z"/>
	</g>
	<g>
		<path class="st0" d="M122,156.4c-4.7,0-9.2-0.9-13.5-2.7l4.4-10.4c6.6,2.8,14.5,2.4,20.8-1.2l5.6,9.8
			C134,154.9,128,156.4,122,156.4z"/>
	</g>
	<g>
		<path class="st0" d="M98.5,121.6H87.2c0-19.2,15.6-34.8,34.8-34.8v11.2C109,98.1,98.5,108.7,98.5,121.6z"/>
	</g>
	<g>
		<path class="st0" d="M122,176.6c-30.1,0-54.6-24.5-54.6-54.6S91.9,67.5,122,67.5s54.6,24.5,54.6,54.6S152.1,176.6,122,176.6z
			 M122,78.7c-23.9,0-43.3,19.4-43.3,43.3s19.4,43.3,43.3,43.3s43.3-19.4,43.3-43.3S145.9,78.7,122,78.7z"/>
	</g>
	<g>
		<path class="st0" d="M98.5,121.6H87.2c0-19.2,15.6-34.8,34.8-34.8v11.2C109,98.1,98.5,108.7,98.5,121.6z"/>
	</g>
	<g>
		<g>
			<g>
				<rect x="116.4" y="28" class="st0" width="11.2" height="30"/>
			</g>
			<g>
				<rect x="116.4" class="st0" width="11.2" height="10.1"/>
			</g>
		</g>
		<g>
			<g>
				<rect x="116.4" y="186.1" class="st0" width="11.2" height="30"/>
			</g>
			<g>
				<rect x="116.4" y="233.9" class="st0" width="11.2" height="10.1"/>
			</g>
		</g>
	</g>
	<g>
		<g>
			<g>
				<rect x="186.1" y="116.4" class="st0" width="30" height="11.2"/>
			</g>
			<g>
				<rect x="233.9" y="116.4" class="st0" width="10.1" height="11.2"/>
			</g>
		</g>
		<g>
			<g>
				<rect x="28" y="116.4" class="st0" width="30" height="11.2"/>
			</g>
			<g>
				<rect y="116.4" class="st0" width="10.1" height="11.2"/>
			</g>
		</g>
	</g>
	<g>
		<g>
			<g>
				
					<rect x="172.3" y="51.1" transform="matrix(0.7071 0.7071 -0.7071 0.7071 98.8638 -106.4463)" class="st0" width="11.2" height="30"/>
			</g>
			<g>
				
					<rect x="199.1" y="34.3" transform="matrix(0.7071 0.7071 -0.7071 0.7071 87.7664 -133.2403)" class="st0" width="11.2" height="10.1"/>
			</g>
		</g>
		<g>
			<g>
				
					<rect x="60.5" y="162.9" transform="matrix(0.7071 0.7071 -0.7071 0.7071 145.1767 5.3603)" class="st0" width="11.2" height="30"/>
			</g>
			<g>
				
					<rect x="33.7" y="199.6" transform="matrix(0.7071 0.7071 -0.7071 0.7071 156.2754 32.1549)" class="st0" width="11.2" height="10.1"/>
			</g>
		</g>
	</g>
	<g>
		<g>
			<g>
				
					<rect x="162.9" y="172.3" transform="matrix(0.7071 0.7071 -0.7071 0.7071 177.9239 -73.6985)" class="st0" width="30" height="11.2"/>
			</g>
			<g>
				
					<rect x="199.6" y="199.1" transform="matrix(0.7071 0.7071 -0.7071 0.7071 204.7185 -84.7972)" class="st0" width="10.1" height="11.2"/>
			</g>
		</g>
		<g>
			<g>
				
					<rect x="51.1" y="60.5" transform="matrix(0.7072 0.707 -0.707 0.7072 66.1085 -27.3874)" class="st0" width="30" height="11.2"/>
			</g>
			<g>
				
					<rect x="34.3" y="33.7" transform="matrix(0.7071 0.7071 -0.7071 0.7071 39.3232 -16.2882)" class="st0" width="10.1" height="11.2"/>
			</g>
		</g>
	</g>
	<g>
		<g>
			<g>
				
					<rect x="189.1" y="75.9" transform="matrix(0.3933 0.9194 -0.9194 0.3933 201.7361 -123.8534)" class="st0" width="11.2" height="30"/>
			</g>
		</g>
		<g>
			<g>
				
					<rect x="43.7" y="138.1" transform="matrix(0.3933 0.9194 -0.9194 0.3933 170.7018 47.5403)" class="st0" width="11.2" height="30"/>
			</g>
		</g>
	</g>
	<g>
		<g>
			<g>
				
					<rect x="138.1" y="189.1" transform="matrix(0.3932 0.9194 -0.9194 0.3932 271.9326 -22.6304)" class="st0" width="30" height="11.2"/>
			</g>
		</g>
		<g>
			<g>
				
					<rect x="75.9" y="43.7" transform="matrix(0.3933 0.9194 -0.9194 0.3933 100.5259 -53.6733)" class="st0" width="30" height="11.2"/>
			</g>
		</g>
	</g>
	<g>
		<g>
			<g>
				
					<rect x="145.8" y="33.6" transform="matrix(0.9283 0.3717 -0.3717 0.9283 28.9248 -52.7987)" class="st0" width="11.2" height="30"/>
			</g>
		</g>
		<g>
			<g>
				
					<rect x="87" y="180.4" transform="matrix(0.9283 0.3717 -0.3717 0.9283 79.2784 -20.431)" class="st0" width="11.2" height="30"/>
			</g>
		</g>
	</g>
	<g>
		<g>
			<g>
				
					<rect x="180.4" y="145.8" transform="matrix(0.9283 0.3718 -0.3718 0.9283 70.2959 -61.7979)" class="st0" width="30" height="11.2"/>
			</g>
		</g>
		<g>
			<g>
				
					<rect x="33.6" y="87" transform="matrix(0.9283 0.3717 -0.3717 0.9283 37.9184 -11.4379)" class="st0" width="30" height="11.2"/>
			</g>
		</g>
	</g>
</g>
</svg>
