<svg id="Layer_1" xmlns="http://www.w3.org/2000/svg" viewBox="0 0 244 244"><style>.st0{fill:#0c373c}</style><path class="st0" d="M156.5 125.9l-11.2-1.4c.1-1 .2-1.9.2-2.9 0-6.8-2.9-13.3-8.1-17.7l7.4-8.5c7.6 6.6 11.9 16.2 11.9 26.2.1 1.5 0 2.9-.2 4.3zM122 156.4c-4.7 0-9.2-.9-13.5-2.7l4.4-10.4c6.6 2.8 14.5 2.4 20.8-1.2l5.6 9.8c-5.3 3-11.3 4.5-17.3 4.5zm-23.5-34.8H87.2c0-19.2 15.6-34.8 34.8-34.8V98c-13 .1-23.5 10.7-23.5 23.6z"/><path class="st0" d="M122 176.6c-30.1 0-54.6-24.5-54.6-54.6S91.9 67.5 122 67.5s54.6 24.5 54.6 54.6-24.5 54.5-54.6 54.5zm0-97.9c-23.9 0-43.3 19.4-43.3 43.3s19.4 43.3 43.3 43.3 43.3-19.4 43.3-43.3-19.4-43.3-43.3-43.3z"/><path class="st0" d="M98.5 121.6H87.2c0-19.2 15.6-34.8 34.8-34.8V98c-13 .1-23.5 10.7-23.5 23.6zM116.4 28h11.2v30h-11.2zm0-28h11.2v10.1h-11.2zm0 186.1h11.2v30h-11.2zm0 47.8h11.2V244h-11.2zm69.7-117.5h30v11.2h-30zm47.8 0H244v11.2h-10.1zm-205.9 0h30v11.2H28zm-28 0h10.1v11.2H0z"/><path transform="rotate(45.001 177.926 66.114)" class="st0" d="M172.3 51.1h11.2v30h-11.2z"/><path transform="rotate(45.001 204.72 39.321)" class="st0" d="M199.1 34.3h11.2v10.1h-11.2z"/><path transform="rotate(45.001 66.12 177.924)" class="st0" d="M60.5 162.9h11.2v30H60.5z"/><path transform="rotate(45.001 39.326 204.72)" class="st0" d="M33.7 199.6h11.2v10.1H33.7z"/><path transform="rotate(45.001 177.927 177.923)" class="st0" d="M162.9 172.3h30v11.2h-30z"/><path transform="rotate(45.001 204.722 204.717)" class="st0" d="M199.6 199.1h10.1v11.2h-10.1z"/><path transform="rotate(44.992 66.121 66.122)" class="st0" d="M51.1 60.5h30v11.2h-30z"/><path transform="rotate(45.001 39.324 39.323)" class="st0" d="M34.3 33.7h10.1v11.2H34.3z"/><path transform="rotate(66.84 194.715 90.931)" class="st0" d="M189.1 75.9h11.2v30h-11.2z"/><path transform="rotate(66.84 49.33 153.114)" class="st0" d="M43.7 138.1h11.2v30H43.7z"/><path transform="rotate(66.845 153.12 194.722)" class="st0" d="M138.1 189.1h30v11.2h-30z"/><path transform="rotate(66.84 90.933 49.333)" class="st0" d="M75.9 43.7h30v11.2h-30z"/><path transform="rotate(21.822 151.42 48.629)" class="st0" d="M145.8 33.6H157v30h-11.2z"/><path transform="rotate(21.822 92.638 195.429)" class="st0" d="M87 180.4h11.2v30H87z"/><path transform="rotate(21.829 195.407 151.386)" class="st0" d="M180.4 145.8h30V157h-30z"/><path transform="rotate(21.822 48.63 92.64)" class="st0" d="M33.6 87h30v11.2h-30z"/></svg>