<?xml version="1.0" encoding="utf-8"?>
<!-- Generator: Adobe Illustrator 19.0.0, SVG Export Plug-In . SVG Version: 6.00 Build 0)  -->
<svg version="1.1" id="Layer_1" xmlns="http://www.w3.org/2000/svg" xmlns:xlink="http://www.w3.org/1999/xlink" x="0px" y="0px"
	 viewBox="0 0 150 150" enable-background="new 0 0 150 150" xml:space="preserve">
<g>
	<path fill="#7DE1EB" d="M27.1,65.3h37.1V32.1H27.1V65.3z M68.2,72.3h-45c-2.2,0-3.9-1.6-3.9-3.5V28.6c0-1.9,1.8-3.5,3.9-3.5h45
		c2.2,0,3.9,1.6,3.9,3.5v40.1C72.1,70.7,70.4,72.3,68.2,72.3"/>
	<path fill="#7DE1EB" d="M87.6,65.3h37.1V32.1H87.6V65.3z M128.6,72.3h-45c-2.2,0-3.9-1.6-3.9-3.5V28.6c0-1.9,1.8-3.5,3.9-3.5h45
		c2.2,0,3.9,1.6,3.9,3.5v40.1C132.6,70.7,130.8,72.3,128.6,72.3"/>
	<path fill="#7DE1EB" d="M27.1,117.9h37.1V84.7H27.1V117.9z M68.2,124.9h-45c-2.2,0-3.9-1.6-3.9-3.5V81.2c0-1.9,1.8-3.5,3.9-3.5h45
		c2.2,0,3.9,1.6,3.9,3.5v40.1C72.1,123.3,70.4,124.9,68.2,124.9"/>
	<path fill="#7DE1EB" d="M87.6,117.9h37.1V84.7H87.6V117.9z M128.6,124.9h-45c-2.2,0-3.9-1.6-3.9-3.5V81.2c0-1.9,1.8-3.5,3.9-3.5h45
		c2.2,0,3.9,1.6,3.9,3.5v40.1C132.6,123.3,130.8,124.9,128.6,124.9"/>
	<path fill="#7DE1EB" d="M83.6,52.2H68.2c-2.2,0-3.9-1.6-3.9-3.5c0-1.9,1.8-3.5,3.9-3.5h15.4c2.2,0,3.9,1.6,3.9,3.5
		C87.6,50.6,85.8,52.2,83.6,52.2"/>
	<path fill="#7DE1EB" d="M106.7,84.3c-2.2,0-3.9-1.4-3.9-3.1V70.5c0-1.7,1.8-3.1,3.9-3.1c2.2,0,3.9,1.4,3.9,3.1v10.6
		C110.7,82.9,108.9,84.3,106.7,84.3"/>
	<path fill="#7DE1EB" d="M45.7,84c-2.2,0-3.9-1.4-3.9-3.1V68.9c0-1.7,1.8-3.1,3.9-3.1c2.2,0,3.9,1.4,3.9,3.1v12.1
		C49.6,82.6,47.9,84,45.7,84"/>
	<path fill="#7DE1EB" d="M83.6,104.8H68.2c-2.2,0-3.9-1.6-3.9-3.5c0-1.9,1.8-3.5,3.9-3.5h15.4c2.2,0,3.9,1.6,3.9,3.5
		C87.6,103.2,85.8,104.8,83.6,104.8"/>
</g>
</svg>
