<svg xmlns="http://www.w3.org/2000/svg" viewBox="0 0 150 150"><g fill="#7DE1EB"><path d="M27.1 65.3h37.1V32.1H27.1v33.2zm41.1 7h-45c-2.2 0-3.9-1.6-3.9-3.5V28.6c0-1.9 1.8-3.5 3.9-3.5h45c2.2 0 3.9 1.6 3.9 3.5v40.1c0 2-1.7 3.6-3.9 3.6m19.4-7h37.1V32.1H87.6v33.2zm41 7h-45c-2.2 0-3.9-1.6-3.9-3.5V28.6c0-1.9 1.8-3.5 3.9-3.5h45c2.2 0 3.9 1.6 3.9 3.5v40.1c.1 2-1.7 3.6-3.9 3.6M27.1 117.9h37.1V84.7H27.1v33.2zm41.1 7h-45c-2.2 0-3.9-1.6-3.9-3.5V81.2c0-1.9 1.8-3.5 3.9-3.5h45c2.2 0 3.9 1.6 3.9 3.5v40.1c0 2-1.7 3.6-3.9 3.6m19.4-7h37.1V84.7H87.6v33.2zm41 7h-45c-2.2 0-3.9-1.6-3.9-3.5V81.2c0-1.9 1.8-3.5 3.9-3.5h45c2.2 0 3.9 1.6 3.9 3.5v40.1c.1 2-1.7 3.6-3.9 3.6"/><path d="M83.6 52.2H68.2c-2.2 0-3.9-1.6-3.9-3.5s1.8-3.5 3.9-3.5h15.4c2.2 0 3.9 1.6 3.9 3.5.1 1.9-1.7 3.5-3.9 3.5m23.1 32.1c-2.2 0-3.9-1.4-3.9-3.1V70.5c0-1.7 1.8-3.1 3.9-3.1 2.2 0 3.9 1.4 3.9 3.1v10.6c.1 1.8-1.7 3.2-3.9 3.2m-61-.3c-2.2 0-3.9-1.4-3.9-3.1v-12c0-1.7 1.8-3.1 3.9-3.1 2.2 0 3.9 1.4 3.9 3.1V81c0 1.6-1.7 3-3.9 3m37.9 20.8H68.2c-2.2 0-3.9-1.6-3.9-3.5s1.8-3.5 3.9-3.5h15.4c2.2 0 3.9 1.6 3.9 3.5.1 1.9-1.7 3.5-3.9 3.5"/></g></svg>